<svg width="40" height="40" viewBox="0 0 40 40" fill="none" xmlns="http://www.w3.org/2000/svg">
<circle cx="20" cy="20" r="20" fill="white" fill-opacity="0.25"/>
<path d="M20.8375 27.0013C20.6881 27.0018 20.5405 26.9688 20.4055 26.9048C20.2705 26.8407 20.1516 26.7473 20.0575 26.6313L15.2275 20.6313C15.0804 20.4523 15 20.2279 15 19.9963C15 19.7646 15.0804 19.5402 15.2275 19.3613L20.2275 13.3613C20.3972 13.157 20.6411 13.0286 20.9056 13.0042C21.17 12.9799 21.4333 13.0615 21.6375 13.2313C21.8417 13.401 21.9701 13.6449 21.9945 13.9093C22.0189 14.1738 21.9372 14.437 21.7675 14.6413L17.2975 20.0013L21.6175 25.3613C21.7398 25.508 21.8174 25.6868 21.8413 25.8763C21.8652 26.0659 21.8343 26.2583 21.7522 26.4308C21.6702 26.6034 21.5404 26.7488 21.3783 26.8499C21.2162 26.9509 21.0285 27.0035 20.8375 27.0013Z" fill="white"/>
</svg>
