<svg width="20" height="16" viewBox="0 0 20 16" fill="none" xmlns="http://www.w3.org/2000/svg">
<path d="M19 0C19.2449 3.23106e-05 19.4813 0.089956 19.6644 0.252715C19.8474 0.415474 19.9643 0.639749 19.993 0.883L20 1V7.5C20.0001 8.39507 19.6572 9.25615 19.0419 9.90621C18.4267 10.5563 17.5857 10.9459 16.692 10.995L16.5 11H3.415L6.707 14.293C6.87918 14.4652 6.98261 14.6943 6.99789 14.9373C7.01317 15.1803 6.93925 15.4206 6.79 15.613L6.707 15.707C6.53481 15.8792 6.30571 15.9826 6.06268 15.9979C5.81965 16.0132 5.5794 15.9393 5.387 15.79L5.293 15.707L0.293 10.707C0.257971 10.6721 0.225551 10.6347 0.196 10.595L0.125 10.485L0.0710001 10.371L0.036 10.266L0.0109999 10.149L0.00399995 10.089L0 10L0.00300002 9.925L0.02 9.799L0.05 9.688L0.0940001 9.577L0.146 9.479L0.21 9.387L0.293 9.293L5.293 4.293C5.47296 4.11365 5.71443 4.00953 5.96838 4.00177C6.22233 3.99402 6.46971 4.08321 6.66028 4.25125C6.85084 4.41928 6.97031 4.65355 6.9944 4.90647C7.01849 5.1594 6.94541 5.41201 6.79 5.613L6.707 5.707L3.415 9H16.5C16.8727 9.00001 17.2321 8.86124 17.5081 8.61075C17.7841 8.36026 17.957 8.01598 17.993 7.645L18 7.5V1C18 0.734784 18.1054 0.48043 18.2929 0.292893C18.4804 0.105357 18.7348 0 19 0Z" fill="#747474"/>
</svg>
