<svg width="183" height="43" viewBox="0 0 183 43" fill="none" xmlns="http://www.w3.org/2000/svg">
<g filter="url(#filter0_d)">
<path fill-rule="evenodd" clip-rule="evenodd" d="M26.3939 28.5847V29.329C26.7983 29.329 27.1482 29.1817 27.4436 28.8871C27.7391 28.5925 27.8868 28.2436 27.8868 27.8404V8.4886C27.8868 8.06993 27.7391 7.71716 27.4436 7.4303C27.1482 7.14343 26.7983 7 26.3939 7V7.7443C26.3939 7.94588 26.3201 8.12033 26.1723 8.26764C26.0246 8.41495 25.8496 8.4886 25.6475 8.4886H24.1545C23.9524 8.4886 23.7774 8.41495 23.6297 8.26764C23.4819 8.12033 23.4081 7.94588 23.4081 7.7443V7H8.47878V7.7443C8.47878 7.94588 8.40492 8.12033 8.25718 8.26764C8.10944 8.41495 7.93449 8.4886 7.73232 8.4886H6.23939C6.03722 8.4886 5.86227 8.41495 5.71453 8.26764C5.5668 8.12033 5.49293 7.94588 5.49293 7.7443V7C5.07304 7 4.71925 7.14343 4.43155 7.4303C4.14385 7.71716 4 8.06993 4 8.4886V27.8404C4 28.2436 4.14385 28.5925 4.43155 28.8871C4.71925 29.1817 5.07304 29.329 5.49293 29.329V28.5847C5.49293 28.3831 5.5668 28.2087 5.71453 28.0614C5.86227 27.9141 6.03722 27.8404 6.23939 27.8404H7.73232C7.93449 27.8404 8.10944 27.9141 8.25718 28.0614C8.40492 28.2087 8.47878 28.3831 8.47878 28.5847V29.329H23.4081V28.5847C23.4081 28.3831 23.4819 28.2087 23.6297 28.0614C23.7774 27.9141 23.9524 27.8404 24.1545 27.8404H25.6475C25.8496 27.8404 26.0246 27.9141 26.1723 28.0614C26.3201 28.2087 26.3939 28.3831 26.3939 28.5847ZM8.25718 10.1982C8.40492 10.3455 8.47878 10.5199 8.47878 10.7215V12.2101C8.47878 12.4117 8.40492 12.5861 8.25718 12.7334C8.10944 12.8807 7.93449 12.9544 7.73232 12.9544H6.23939C6.03722 12.9544 5.86227 12.8807 5.71453 12.7334C5.5668 12.5861 5.49293 12.4117 5.49293 12.2101V10.7215C5.49293 10.5199 5.5668 10.3455 5.71453 10.1982C5.86227 10.0509 6.03722 9.9772 6.23939 9.9772H7.73232C7.93449 9.9772 8.10944 10.0509 8.25718 10.1982ZM8.25718 14.664C8.40492 14.8113 8.47878 14.9857 8.47878 15.1873V16.6759C8.47878 16.8775 8.40492 17.0519 8.25718 17.1992C8.10944 17.3465 7.93449 17.4202 7.73232 17.4202H6.23939C6.03722 17.4202 5.86227 17.3465 5.71453 17.1992C5.5668 17.0519 5.49293 16.8775 5.49293 16.6759V15.1873C5.49293 14.9857 5.5668 14.8113 5.71453 14.664C5.86227 14.5167 6.03722 14.443 6.23939 14.443H7.73232C7.93449 14.443 8.10944 14.5167 8.25718 14.664ZM8.25718 19.1298C8.40492 19.2771 8.47878 19.4515 8.47878 19.6531V21.1417C8.47878 21.3433 8.40492 21.5177 8.25718 21.665C8.10944 21.8123 7.93449 21.886 7.73232 21.886H6.23939C6.03722 21.886 5.86227 21.8123 5.71453 21.665C5.5668 21.5177 5.49293 21.3433 5.49293 21.1417V19.6531C5.49293 19.4515 5.5668 19.2771 5.71453 19.1298C5.86227 18.9825 6.03722 18.9088 6.23939 18.9088H7.73232C7.93449 18.9088 8.10944 18.9825 8.25718 19.1298ZM8.25718 23.5956C8.40492 23.7429 8.47878 23.9173 8.47878 24.1189V25.6075C8.47878 25.8091 8.40492 25.9835 8.25718 26.1308C8.10944 26.2782 7.93449 26.3518 7.73232 26.3518H6.23939C6.03722 26.3518 5.86227 26.2782 5.71453 26.1308C5.5668 25.9835 5.49293 25.8091 5.49293 25.6075V24.1189C5.49293 23.9173 5.5668 23.7429 5.71453 23.5956C5.86227 23.4483 6.03722 23.3746 6.23939 23.3746H7.73232C7.93449 23.3746 8.10944 23.4483 8.25718 23.5956ZM26.1723 10.1982C26.3201 10.3455 26.3939 10.5199 26.3939 10.7215V12.2101C26.3939 12.4117 26.3201 12.5861 26.1723 12.7334C26.0246 12.8807 25.8496 12.9544 25.6475 12.9544H24.1545C23.9524 12.9544 23.7774 12.8807 23.6297 12.7334C23.4819 12.5861 23.4081 12.4117 23.4081 12.2101V10.7215C23.4081 10.5199 23.4819 10.3455 23.6297 10.1982C23.7774 10.0509 23.9524 9.9772 24.1545 9.9772H25.6475C25.8496 9.9772 26.0246 10.0509 26.1723 10.1982ZM26.1723 14.664C26.3201 14.8113 26.3939 14.9857 26.3939 15.1873V16.6759C26.3939 16.8775 26.3201 17.0519 26.1723 17.1992C26.0246 17.3465 25.8496 17.4202 25.6475 17.4202H24.1545C23.9524 17.4202 23.7774 17.3465 23.6297 17.1992C23.4819 17.0519 23.4081 16.8775 23.4081 16.6759V15.1873C23.4081 14.9857 23.4819 14.8113 23.6297 14.664C23.7774 14.5167 23.9524 14.443 24.1545 14.443H25.6475C25.8496 14.443 26.0246 14.5167 26.1723 14.664ZM26.1723 19.1298C26.3201 19.2771 26.3939 19.4515 26.3939 19.6531V21.1417C26.3939 21.2551 26.3706 21.3599 26.3238 21.4561C26.4956 21.972 26.5886 22.524 26.5886 23.0977C26.5886 23.5877 26.5208 24.0618 26.3939 24.5113V25.6075C26.3939 25.8091 26.3201 25.9835 26.1723 26.1308C26.0246 26.2782 25.8496 26.3518 25.6475 26.3518H25.4428C24.4909 27.534 23.0317 28.2904 21.3959 28.2904C18.528 28.2904 16.2031 25.9656 16.2031 23.0977C16.2031 20.2298 18.528 17.9049 21.3959 17.9049C22.5443 17.9049 23.6056 18.2776 24.4654 18.9088H25.6475C25.8496 18.9088 26.0246 18.9825 26.1723 19.1298Z" fill="url(#paint0_linear)"/>
<path d="M23.6297 19.1298C23.7774 18.9825 23.9524 18.9088 24.1545 18.9088H24.4654C23.6056 18.2776 22.5443 17.9049 21.3959 17.9049C18.528 17.9049 16.2031 20.2298 16.2031 23.0977C16.2031 25.9656 18.528 28.2904 21.3959 28.2904C23.0317 28.2904 24.4909 27.534 25.4428 26.3518H24.1545C23.9524 26.3518 23.7774 26.2782 23.6297 26.1308C23.4819 25.9835 23.4081 25.8091 23.4081 25.6075V24.1189C23.4081 23.9173 23.4819 23.7429 23.6297 23.5956C23.7774 23.4483 23.9524 23.3746 24.1545 23.3746H25.6475C25.8496 23.3746 26.0246 23.4483 26.1723 23.5956C26.3201 23.7429 26.3939 23.9173 26.3939 24.1189V24.5113C26.5208 24.0618 26.5886 23.5877 26.5886 23.0977C26.5886 22.524 26.4956 21.972 26.3238 21.4561C26.2875 21.5309 26.237 21.6006 26.1723 21.665C26.0246 21.8123 25.8496 21.886 25.6475 21.886H24.1545C23.9524 21.886 23.7774 21.8123 23.6297 21.665C23.4819 21.5177 23.4081 21.3433 23.4081 21.1417V19.6531C23.4081 19.4515 23.4819 19.2771 23.6297 19.1298Z" fill="url(#paint1_linear)"/>
</g>
<circle cx="21.3959" cy="22.838" r="4.93315" fill="#181818" fill-opacity="0.6"/>
<g filter="url(#filter1_d)">
<path d="M13.8663 23.0225C13.8663 27.2844 17.2946 30.737 21.5226 30.737C22.9154 30.7392 24.2823 30.3566 25.4744 29.631L29.1866 33.3712L29.1995 33.3581C29.5787 33.7574 30.117 34.0025 30.7255 34.0025C31.901 34.0028 32.8202 33.0592 32.82 31.876C32.8197 31.2717 32.5797 30.7312 32.1893 30.3455L32.1986 30.3361L28.3683 26.477C28.9025 25.4051 29.1801 24.222 29.1789 23.0225C29.1789 18.7604 25.751 15.3085 21.5226 15.3085C17.2946 15.3085 13.8663 18.7606 13.8663 23.0225ZM26.1683 22.9757C26.1683 25.6395 24.026 27.7974 21.3831 27.7974C18.7407 27.7974 16.5979 25.6395 16.5979 22.9757C16.5979 20.3119 18.7405 18.1545 21.3831 18.1545C24.026 18.1543 26.1683 20.3119 26.1683 22.9757Z" fill="url(#paint2_linear)"/>
<path d="M17.9859 22.6252C17.8659 22.5053 17.8351 22.3216 17.9136 22.1712C18.5683 20.9166 19.195 20.3069 20.4683 19.6209C20.6189 19.5397 20.8048 19.5691 20.9258 19.6901C21.1284 19.8927 21.0529 20.2368 20.7916 20.3543C19.6946 20.8473 19.1335 21.4207 18.6535 22.4905C18.5355 22.7534 18.1897 22.829 17.9859 22.6252Z" fill="url(#paint3_linear)"/>
</g>
<path d="M46.1 17.229H42.995V30H40.538V17.229H38.621V15.204H40.538V14.151C40.538 12.495 40.961 11.289 41.807 10.533C42.671 9.759 44.048 9.372 45.938 9.372V11.424C44.858 11.424 44.093 11.64 43.643 12.072C43.211 12.486 42.995 13.179 42.995 14.151V15.204H46.1V17.229ZM50.2337 12.801C49.7657 12.801 49.3697 12.639 49.0457 12.315C48.7217 11.991 48.5597 11.595 48.5597 11.127C48.5597 10.659 48.7217 10.263 49.0457 9.939C49.3697 9.615 49.7657 9.453 50.2337 9.453C50.6837 9.453 51.0617 9.615 51.3677 9.939C51.6917 10.263 51.8537 10.659 51.8537 11.127C51.8537 11.595 51.6917 11.991 51.3677 12.315C51.0617 12.639 50.6837 12.801 50.2337 12.801ZM51.4217 15.204V30H48.9647V15.204H51.4217ZM58.0663 10.02V30H55.6093V10.02H58.0663ZM80.0468 14.934C81.1988 14.934 82.2248 15.177 83.1248 15.663C84.0248 16.131 84.7358 16.842 85.2578 17.796C85.7798 18.75 86.0408 19.911 86.0408 21.279V30H83.6108V21.63C83.6108 20.154 83.2418 19.029 82.5038 18.255C81.7838 17.463 80.8028 17.067 79.5608 17.067C78.2828 17.067 77.2658 17.481 76.5098 18.309C75.7538 19.119 75.3758 20.298 75.3758 21.846V30H72.9458V21.63C72.9458 20.154 72.5768 19.029 71.8388 18.255C71.1188 17.463 70.1378 17.067 68.8958 17.067C67.6178 17.067 66.6008 17.481 65.8448 18.309C65.0888 19.119 64.7108 20.298 64.7108 21.846V30H62.2538V15.204H64.7108V17.337C65.1968 16.563 65.8448 15.969 66.6548 15.555C67.4828 15.141 68.3918 14.934 69.3818 14.934C70.6238 14.934 71.7218 15.213 72.6758 15.771C73.6298 16.329 74.3408 17.148 74.8088 18.228C75.2228 17.184 75.9068 16.374 76.8608 15.798C77.8148 15.222 78.8768 14.934 80.0468 14.934ZM96.7132 18.147H94.0942V30H90.2602V18.147H88.5592V15.042H90.2602V14.286C90.2602 12.45 90.7822 11.1 91.8262 10.236C92.8702 9.372 94.4452 8.967 96.5512 9.021V12.207C95.6332 12.189 94.9942 12.342 94.6342 12.666C94.2742 12.99 94.0942 13.575 94.0942 14.421V15.042H96.7132V18.147ZM101.08 13.26C100.414 13.26 99.8558 13.053 99.4058 12.639C98.9738 12.207 98.7578 11.676 98.7578 11.046C98.7578 10.416 98.9738 9.894 99.4058 9.48C99.8558 9.048 100.414 8.832 101.08 8.832C101.746 8.832 102.295 9.048 102.727 9.48C103.177 9.894 103.402 10.416 103.402 11.046C103.402 11.676 103.177 12.207 102.727 12.639C102.295 13.053 101.746 13.26 101.08 13.26ZM102.943 15.042V30H99.1628V15.042H102.943ZM114.966 14.826C116.748 14.826 118.188 15.393 119.286 16.527C120.384 17.643 120.933 19.209 120.933 21.225V30H117.153V21.738C117.153 20.55 116.856 19.641 116.262 19.011C115.668 18.363 114.858 18.039 113.832 18.039C112.788 18.039 111.96 18.363 111.348 19.011C110.754 19.641 110.457 20.55 110.457 21.738V30H106.677V15.042H110.457V16.905C110.961 16.257 111.6 15.753 112.374 15.393C113.166 15.015 114.03 14.826 114.966 14.826ZM123.556 22.467C123.556 20.955 123.853 19.614 124.447 18.444C125.059 17.274 125.887 16.374 126.931 15.744C127.975 15.114 129.136 14.799 130.414 14.799C131.386 14.799 132.313 15.015 133.195 15.447C134.077 15.861 134.779 16.419 135.301 17.121V10.02H139.135V30H135.301V27.786C134.833 28.524 134.176 29.118 133.33 29.568C132.484 30.018 131.503 30.243 130.387 30.243C129.127 30.243 127.975 29.919 126.931 29.271C125.887 28.623 125.059 27.714 124.447 26.544C123.853 25.356 123.556 23.997 123.556 22.467ZM135.328 22.521C135.328 21.603 135.148 20.82 134.788 20.172C134.428 19.506 133.942 19.002 133.33 18.66C132.718 18.3 132.061 18.12 131.359 18.12C130.657 18.12 130.009 18.291 129.415 18.633C128.821 18.975 128.335 19.479 127.957 20.145C127.597 20.793 127.417 21.567 127.417 22.467C127.417 23.367 127.597 24.159 127.957 24.843C128.335 25.509 128.821 26.022 129.415 26.382C130.027 26.742 130.675 26.922 131.359 26.922C132.061 26.922 132.718 26.751 133.33 26.409C133.942 26.049 134.428 25.545 134.788 24.897C135.148 24.231 135.328 23.439 135.328 22.521ZM156.732 22.197C156.732 22.737 156.696 23.223 156.624 23.655H145.689C145.779 24.735 146.157 25.581 146.823 26.193C147.489 26.805 148.308 27.111 149.28 27.111C150.684 27.111 151.683 26.508 152.277 25.302H156.354C155.922 26.742 155.094 27.93 153.87 28.866C152.646 29.784 151.143 30.243 149.361 30.243C147.921 30.243 146.625 29.928 145.473 29.298C144.339 28.65 143.448 27.741 142.8 26.571C142.17 25.401 141.855 24.051 141.855 22.521C141.855 20.973 142.17 19.614 142.8 18.444C143.43 17.274 144.312 16.374 145.446 15.744C146.58 15.114 147.885 14.799 149.361 14.799C150.783 14.799 152.052 15.105 153.168 15.717C154.302 16.329 155.175 17.202 155.787 18.336C156.417 19.452 156.732 20.739 156.732 22.197ZM152.817 21.117C152.799 20.145 152.448 19.371 151.764 18.795C151.08 18.201 150.243 17.904 149.253 17.904C148.317 17.904 147.525 18.192 146.877 18.768C146.247 19.326 145.86 20.109 145.716 21.117H152.817ZM163.271 17.364C163.757 16.572 164.387 15.951 165.161 15.501C165.953 15.051 166.853 14.826 167.861 14.826V18.795H166.862C165.674 18.795 164.774 19.074 164.162 19.632C163.568 20.19 163.271 21.162 163.271 22.548V30H159.491V15.042H163.271V17.364Z" fill="white"/>
<defs>
<filter id="filter0_d" x="0" y="7" width="31.8868" height="30.329" filterUnits="userSpaceOnUse" color-interpolation-filters="sRGB">
<feFlood flood-opacity="0" result="BackgroundImageFix"/>
<feColorMatrix in="SourceAlpha" type="matrix" values="0 0 0 0 0 0 0 0 0 0 0 0 0 0 0 0 0 0 127 0"/>
<feOffset dy="4"/>
<feGaussianBlur stdDeviation="2"/>
<feColorMatrix type="matrix" values="0 0 0 0 0 0 0 0 0 0 0 0 0 0 0 0 0 0 0.25 0"/>
<feBlend mode="normal" in2="BackgroundImageFix" result="effect1_dropShadow"/>
<feBlend mode="normal" in="SourceGraphic" in2="effect1_dropShadow" result="shape"/>
</filter>
<filter id="filter1_d" x="9.86627" y="15.3085" width="26.9537" height="26.6941" filterUnits="userSpaceOnUse" color-interpolation-filters="sRGB">
<feFlood flood-opacity="0" result="BackgroundImageFix"/>
<feColorMatrix in="SourceAlpha" type="matrix" values="0 0 0 0 0 0 0 0 0 0 0 0 0 0 0 0 0 0 127 0"/>
<feOffset dy="4"/>
<feGaussianBlur stdDeviation="2"/>
<feColorMatrix type="matrix" values="0 0 0 0 0 0 0 0 0 0 0 0 0 0 0 0 0 0 0.25 0"/>
<feBlend mode="normal" in2="BackgroundImageFix" result="effect1_dropShadow"/>
<feBlend mode="normal" in="SourceGraphic" in2="effect1_dropShadow" result="shape"/>
</filter>
<linearGradient id="paint0_linear" x1="15.9434" y1="7" x2="15.9434" y2="29.329" gradientUnits="userSpaceOnUse">
<stop stop-color="#B00101"/>
<stop offset="1" stop-color="#820101"/>
</linearGradient>
<linearGradient id="paint1_linear" x1="15.9434" y1="7" x2="15.9434" y2="29.329" gradientUnits="userSpaceOnUse">
<stop stop-color="#B00101"/>
<stop offset="1" stop-color="#820101"/>
</linearGradient>
<linearGradient id="paint2_linear" x1="16.0732" y1="17.775" x2="31.7814" y2="33.2236" gradientUnits="userSpaceOnUse">
<stop stop-color="#E40000"/>
<stop offset="1" stop-color="#910000"/>
</linearGradient>
<linearGradient id="paint3_linear" x1="16.0732" y1="17.775" x2="31.7814" y2="33.2236" gradientUnits="userSpaceOnUse">
<stop stop-color="#E40000"/>
<stop offset="1" stop-color="#910000"/>
</linearGradient>
</defs>
</svg>
