<svg width="31" height="30" viewBox="0 0 31 30" fill="none" xmlns="http://www.w3.org/2000/svg">
<path d="M20.5242 19.8472H21.3393L29.273 27.7705C29.2731 27.7705 29.2731 27.7706 29.2732 27.7706C29.4633 27.9607 29.5699 28.2183 29.5698 28.4866C29.5697 28.7551 29.4629 29.0126 29.2725 29.2026C29.0822 29.3926 28.8239 29.4993 28.5545 29.4993C28.2851 29.4992 28.0269 29.3922 27.8367 29.2021L27.8366 29.202L19.7563 21.1323L19.4451 20.8215L19.0971 21.0906C16.7821 22.8813 13.8709 23.724 10.9557 23.4473C8.04047 23.1705 5.34048 21.795 3.40491 19.6008C1.46935 17.4067 0.443569 14.5587 0.536056 11.6362C0.628543 8.71373 1.83236 5.93608 3.90282 3.86835C5.97329 1.8006 8.75489 0.598128 11.6818 0.505745C14.6087 0.413362 17.4608 1.43802 19.6579 3.37109C21.855 5.30414 23.232 8.00036 23.5091 10.9112C23.7862 13.822 22.9426 16.729 21.1496 19.0408L20.5242 19.8472ZM12.0467 21.4986C14.569 21.4986 16.9883 20.498 18.772 18.7165C20.5559 16.935 21.5581 14.5187 21.5581 11.9991C21.5581 9.4794 20.5559 7.06307 18.772 5.28161C16.9883 3.50016 14.569 2.49948 12.0467 2.49948C9.52429 2.49948 7.10509 3.50016 5.3213 5.28161C3.53749 7.06307 2.53523 9.4794 2.53523 11.9991C2.53523 14.5187 3.53749 16.935 5.3213 18.7165C7.10509 20.498 9.52429 21.4986 12.0467 21.4986Z" fill="#747474" stroke="#747474"/>
</svg>
